solid Designed by EasyEDA Pro 
 facet normal -0.000000e+00  0.000000e+00  1.000000e+00
   outer loop
     vertex  1.736446e+02 -6.820473e+01  2.032004e+01
     vertex  1.925754e+02 -8.086516e+01  2.032004e+01
     vertex  1.925754e+02 -6.820473e+01  2.032004e+01
   endloop
 endfacet
 facet normal  0.000000e+00  0.000000e+00  1.000000e+00
   outer loop
     vertex  1.736446e+02 -6.820473e+01  2.032004e+01
     vertex  1.736446e+02 -8.086516e+01  2.032004e+01
     vertex  1.925754e+02 -8.086516e+01  2.032004e+01
   endloop
 endfacet
 facet normal  1.000000e+00  0.000000e+00  0.000000e+00
   outer loop
     vertex  1.925754e+02 -6.820473e+01  1.866904e+01
     vertex  1.925754e+02 -8.086516e+01  2.032004e+01
     vertex  1.925754e+02 -8.086516e+01  1.866904e+01
   endloop
 endfacet
 facet normal  1.000000e+00  0.000000e+00 -0.000000e+00
   outer loop
     vertex  1.925754e+02 -6.820473e+01  1.866904e+01
     vertex  1.925754e+02 -6.820473e+01  2.032004e+01
     vertex  1.925754e+02 -8.086516e+01  2.032004e+01
   endloop
 endfacet
 facet normal -0.000000e+00  1.000000e+00  0.000000e+00
   outer loop
     vertex  1.736446e+02 -6.820473e+01  2.032004e+01
     vertex  1.925754e+02 -6.820473e+01  2.032004e+01
     vertex  1.925754e+02 -6.820473e+01  1.866904e+01
   endloop
 endfacet
 facet normal  0.000000e+00  1.000000e+00  0.000000e+00
   outer loop
     vertex  1.736446e+02 -6.820473e+01  1.866904e+01
     vertex  1.736446e+02 -6.820473e+01  2.032004e+01
     vertex  1.925754e+02 -6.820473e+01  1.866904e+01
   endloop
 endfacet
 facet normal -1.000000e+00  0.000000e+00  0.000000e+00
   outer loop
     vertex  1.736446e+02 -8.086516e+01  1.866904e+01
     vertex  1.736446e+02 -6.820473e+01  2.032004e+01
     vertex  1.736446e+02 -6.820473e+01  1.866904e+01
   endloop
 endfacet
 facet normal -1.000000e+00  0.000000e+00  0.000000e+00
   outer loop
     vertex  1.736446e+02 -8.086516e+01  1.866904e+01
     vertex  1.736446e+02 -8.086516e+01  2.032004e+01
     vertex  1.736446e+02 -6.820473e+01  2.032004e+01
   endloop
 endfacet
 facet normal -0.000000e+00 -1.000000e+00  0.000000e+00
   outer loop
     vertex  1.925754e+02 -8.086516e+01  2.032004e+01
     vertex  1.736446e+02 -8.086516e+01  2.032004e+01
     vertex  1.736446e+02 -8.086516e+01  1.866904e+01
   endloop
 endfacet
 facet normal  0.000000e+00 -1.000000e+00  0.000000e+00
   outer loop
     vertex  1.925754e+02 -8.086516e+01  1.866904e+01
     vertex  1.925754e+02 -8.086516e+01  2.032004e+01
     vertex  1.736446e+02 -8.086516e+01  1.866904e+01
   endloop
 endfacet
 facet normal  0.000000e+00  0.000000e+00 -1.000000e+00
   outer loop
     vertex  1.736446e+02 -6.820473e+01  1.866904e+01
     vertex  1.925754e+02 -6.820473e+01  1.866904e+01
     vertex  1.925754e+02 -8.086516e+01  1.866904e+01
   endloop
 endfacet
 facet normal  0.000000e+00  0.000000e+00 -1.000000e+00
   outer loop
     vertex  1.736446e+02 -6.820473e+01  1.866904e+01
     vertex  1.925754e+02 -8.086516e+01  1.866904e+01
     vertex  1.736446e+02 -8.086516e+01  1.866904e+01
   endloop
 endfacet
endsolid
