solid Designed by EasyEDA Pro 
 facet normal -0.000000e+00  0.000000e+00  1.000000e+00
   outer loop
     vertex  8.089916e+01 -6.956014e+01  2.032004e+01
     vertex  1.002352e+02 -8.100134e+01  2.032004e+01
     vertex  1.002352e+02 -6.956014e+01  2.032004e+01
   endloop
 endfacet
 facet normal  0.000000e+00  0.000000e+00  1.000000e+00
   outer loop
     vertex  8.089916e+01 -6.956014e+01  2.032004e+01
     vertex  8.089916e+01 -8.100134e+01  2.032004e+01
     vertex  1.002352e+02 -8.100134e+01  2.032004e+01
   endloop
 endfacet
 facet normal  0.000000e+00  1.000000e+00  0.000000e+00
   outer loop
     vertex  8.089916e+01 -6.956014e+01  1.866904e+01
     vertex  1.002352e+02 -6.956014e+01  2.032004e+01
     vertex  1.002352e+02 -6.956014e+01  1.866904e+01
   endloop
 endfacet
 facet normal  0.000000e+00  1.000000e+00  0.000000e+00
   outer loop
     vertex  8.089916e+01 -6.956014e+01  1.866904e+01
     vertex  8.089916e+01 -6.956014e+01  2.032004e+01
     vertex  1.002352e+02 -6.956014e+01  2.032004e+01
   endloop
 endfacet
 facet normal -1.000000e+00  0.000000e+00  0.000000e+00
   outer loop
     vertex  8.089916e+01 -8.100134e+01  1.866904e+01
     vertex  8.089916e+01 -6.956014e+01  2.032004e+01
     vertex  8.089916e+01 -6.956014e+01  1.866904e+01
   endloop
 endfacet
 facet normal -1.000000e+00  0.000000e+00  0.000000e+00
   outer loop
     vertex  8.089916e+01 -8.100134e+01  1.866904e+01
     vertex  8.089916e+01 -8.100134e+01  2.032004e+01
     vertex  8.089916e+01 -6.956014e+01  2.032004e+01
   endloop
 endfacet
 facet normal  0.000000e+00 -1.000000e+00  0.000000e+00
   outer loop
     vertex  1.002352e+02 -8.100134e+01  1.866904e+01
     vertex  8.089916e+01 -8.100134e+01  2.032004e+01
     vertex  8.089916e+01 -8.100134e+01  1.866904e+01
   endloop
 endfacet
 facet normal  0.000000e+00 -1.000000e+00  0.000000e+00
   outer loop
     vertex  1.002352e+02 -8.100134e+01  1.866904e+01
     vertex  1.002352e+02 -8.100134e+01  2.032004e+01
     vertex  8.089916e+01 -8.100134e+01  2.032004e+01
   endloop
 endfacet
 facet normal  1.000000e+00  0.000000e+00  0.000000e+00
   outer loop
     vertex  1.002352e+02 -6.956014e+01  1.866904e+01
     vertex  1.002352e+02 -8.100134e+01  2.032004e+01
     vertex  1.002352e+02 -8.100134e+01  1.866904e+01
   endloop
 endfacet
 facet normal  1.000000e+00  0.000000e+00 -0.000000e+00
   outer loop
     vertex  1.002352e+02 -6.956014e+01  1.866904e+01
     vertex  1.002352e+02 -6.956014e+01  2.032004e+01
     vertex  1.002352e+02 -8.100134e+01  2.032004e+01
   endloop
 endfacet
 facet normal  0.000000e+00  0.000000e+00 -1.000000e+00
   outer loop
     vertex  8.089916e+01 -6.956014e+01  1.866904e+01
     vertex  1.002352e+02 -6.956014e+01  1.866904e+01
     vertex  1.002352e+02 -8.100134e+01  1.866904e+01
   endloop
 endfacet
 facet normal  0.000000e+00  0.000000e+00 -1.000000e+00
   outer loop
     vertex  8.089916e+01 -6.956014e+01  1.866904e+01
     vertex  1.002352e+02 -8.100134e+01  1.866904e+01
     vertex  8.089916e+01 -8.100134e+01  1.866904e+01
   endloop
 endfacet
endsolid
